<svg id="memory" enable-background="new 0 0 300 300" height="512" viewBox="0 0 300 300" width="512" xmlns="http://www.w3.org/2000/svg"><g><path d="m248.496 164c0-11.898-6.793-22.578-16.874-27.579 4.412-5.157 6.712-11.329 6.712-18.151 0-16.487-13.414-29.9-29.901-29.9-3.031 0-6.001.469-8.879 1.399-1.542-13.361-12.923-23.769-26.689-23.769-9.652 0-18.128 5.118-22.865 12.781-4.737-7.663-13.213-12.781-22.865-12.781-13.767 0-25.147 10.408-26.688 23.769-2.879-.931-5.849-1.399-8.88-1.399-16.487 0-29.901 13.413-29.901 29.9 0 6.822 2.3 12.994 6.712 18.151-10.081 5.001-16.874 15.681-16.874 27.579 0 11.569 6.818 21.996 16.931 26.903-4.357 5.282-6.769 11.868-6.769 18.826 0 16.487 13.414 29.9 29.901 29.9 3.031 0 6.001-.469 8.88-1.399 1.54 13.36 12.921 23.77 26.688 23.77 9.652 0 18.127-5.118 22.864-12.781 4.737 7.663 13.213 12.781 22.865 12.781 13.767 0 25.147-10.409 26.688-23.77 2.878.931 5.848 1.399 8.879 1.399 16.487 0 29.901-13.413 29.901-29.9 0-6.958-2.411-13.544-6.769-18.826 10.114-4.907 16.933-15.334 16.933-26.903zm-121.361 90c-10.402 0-18.865-8.463-18.865-18.865 0-.634.099-1.323.213-2.121l.065-.464c.211-1.518-.465-3.023-1.738-3.875-1.275-.853-2.924-.899-4.246-.126-3.488 2.045-7.188 3.081-10.996 3.081-12.076 0-21.901-9.824-21.901-21.9 0-6.77 3.144-13.07 8.625-17.289 1.232-.948 1.804-2.525 1.464-4.044-.34-1.518-1.528-2.701-3.048-3.033-9.968-2.183-17.204-11.168-17.204-21.364 0-10.324 7.226-19.706 16.86-22h10.333c4.799 0 8.703 4.606 8.703 10.27s-3.904 10.271-8.703 10.271h-2.54c-2.209 0-4 1.791-4 4s1.791 4 4 4h2.54c9.21 0 16.703-8.196 16.703-18.271s-7.493-18.27-16.703-18.27h-9.433c-5.042-4.268-7.598-9.553-7.598-15.73 0-12.076 9.825-21.9 21.901-21.9 3.808 0 7.508 1.036 10.996 3.081 1.321.772 2.97.727 4.246-.126 1.273-.852 1.949-2.357 1.738-3.875l-.065-.466c-.114-.797-.213-1.485-.213-2.119 0-10.401 8.463-18.864 18.865-18.864 10.403-.001 18.866 8.462 18.866 18.863v61.136h-.694c-11.028 0-20 8.972-20 20 0 2.209 1.791 4 4 4s4-1.791 4-4c0-6.617 5.383-12 12-12h.694v73.135c0 10.402-8.463 18.865-18.865 18.865zm96.157-68.637c-1.52.332-2.708 1.516-3.048 3.033-.34 1.519.231 3.096 1.464 4.044 5.481 4.219 8.625 10.52 8.625 17.289 0 12.076-9.825 21.9-21.901 21.9-3.808 0-7.508-1.036-10.996-3.081-1.323-.774-2.971-.728-4.246.126-1.273.852-1.949 2.357-1.738 3.875l.065.464c.114.798.213 1.487.213 2.121 0 10.402-8.463 18.865-18.865 18.865s-18.865-8.462-18.865-18.864v-49.135h4.105c6.617 0 12 5.383 12 12 0 2.209 1.791 4 4 4s4-1.791 4-4c0-11.028-8.972-20-20-20h-4.105v-85.136c0-10.401 8.462-18.864 18.865-18.864s18.865 8.463 18.865 18.864c0 .634-.099 1.322-.213 2.119l-.065.466c-.211 1.518.465 3.023 1.738 3.875 1.277.854 2.924.9 4.246.126 3.488-2.045 7.188-3.081 10.996-3.081 12.076 0 21.901 9.824 21.901 21.9 0 6.177-2.555 11.463-7.598 15.73h-9.223c-9.21 0-16.702 8.195-16.702 18.27s7.492 18.271 16.702 18.271h2.541c2.209 0 4-1.791 4-4s-1.791-4-4-4h-2.541c-4.799 0-8.702-4.607-8.702-10.271s3.903-10.27 8.702-10.27h10.123c9.634 2.294 16.86 11.676 16.86 22 .001 10.197-7.235 19.182-17.203 21.364z"/><path d="m185.568 129.892c10.61 0 19.243-8.633 19.243-19.243 0-2.209-1.791-4-4-4s-4 1.791-4 4c0 6.199-5.044 11.243-11.243 11.243h-5.081c-10.61 0-19.243 8.633-19.243 19.243 0 2.209 1.791 4 4 4s4-1.791 4-4c0-6.199 5.044-11.243 11.243-11.243z"/><path d="m188.896 169.402c-1.225-1.838-3.709-2.338-5.547-1.109-1.838 1.225-2.335 3.709-1.109 5.547l6.591 9.888c1.896 2.846 2.899 6.156 2.899 9.574 0 4.61-1.796 8.944-5.056 12.205l-9.016 9.016c-1.562 1.562-1.562 4.095 0 5.656.78.781 1.805 1.172 2.828 1.172s2.048-.391 2.828-1.172l9.016-9.016c4.771-4.771 7.399-11.114 7.399-17.861 0-5.003-1.467-9.848-4.243-14.012z"/><path d="m119.724 129.892c6.199 0 11.243 5.044 11.243 11.243 0 2.209 1.791 4 4 4s4-1.791 4-4c0-10.61-8.633-19.243-19.243-19.243h-5.081c-6.199 0-11.243-5.044-11.243-11.243 0-2.209-1.791-4-4-4s-4 1.791-4 4c0 10.61 8.633 19.243 19.243 19.243z"/><path d="m138.478 205.655-12.581 2.081c-4.55.755-9.118-.312-12.866-2.995-2.78-1.991-4.888-4.733-6.097-7.932l-4.201-11.115c-.78-2.067-3.086-3.112-5.155-2.327-2.066.78-3.108 3.089-2.327 5.155l4.2 11.114c1.769 4.682 4.854 8.695 8.922 11.608 4.337 3.105 9.424 4.729 14.652 4.729 1.387 0 2.783-.114 4.178-.345l12.581-2.081c2.179-.36 3.653-2.42 3.293-4.599-.362-2.178-2.424-3.662-4.599-3.293z"/><path d="m218.105 70c1.023 0 2.048-.391 2.828-1.172l12-12c1.562-1.562 1.562-4.095 0-5.656-1.561-1.562-4.096-1.562-5.656 0l-12 12c-1.562 1.562-1.562 4.095 0 5.656.78.781 1.805 1.172 2.828 1.172z"/><path d="m222.105 78c0 2.209 1.791 4 4 4h16c2.209 0 4-1.791 4-4s-1.791-4-4-4h-16c-2.209 0-4 1.791-4 4z"/><path d="m206.105 62c2.209 0 4-1.791 4-4v-16c0-2.209-1.791-4-4-4s-4 1.791-4 4v16c0 2.209 1.791 4 4 4z"/></g></svg>