<svg height="512pt" viewBox="0 0 512.03013 512" width="512pt" xmlns="http://www.w3.org/2000/svg"><path d="m501.949219 182.558594c-6.105469-2.800782-13.296875-1.71875-18.308594 2.757812l-82.574219 72.859375v-60.0625c0-6.710937-3.929687-12.796875-10.046875-15.558593-6.113281-2.757813-13.28125-1.679688-18.3125 2.757812l-82.574219 72.863281v-60.0625c0-6.710937-3.929687-12.796875-10.042968-15.558593-6.117188-2.757813-13.28125-1.679688-18.316406 2.757812l-.8125.71875-12-120.300781c-1.253907-13.117188-12.296876-23.113281-25.472657-23.058594h-45.910156c-13.167969-.054687-24.210937 9.933594-25.476563 23.039063l-15.566406 155.722656-15.574218-155.710938c-1.277344-13.101562-12.308594-23.085937-25.472657-23.050781h-45.910156c-13.164063-.035156-24.195313 9.949219-25.472656 23.050781l-24.0625002 240.628906c-.015625.144532.0507812.277344.046875.417969-.0078126.140625-.0898438.28125-.0898438.4375v187.730469c.0078125 9.421875 7.644531 17.058594 17.066406 17.066406h477.867188c9.421875-.007812 17.058594-7.644531 17.066406-17.066406v-296.824219c.050781-6.722656-3.898438-12.835937-10.050781-15.554687zm-314.214844 209.980468h-102.402344c-9.421875.007813-17.054687 7.644532-17.066406 17.066407v42.667969h-51.199219v-136.535157h477.867188v136.535157h-290.132813v-42.667969c-.011719-9.421875-7.644531-17.058594-17.066406-17.066407zm-77.695313-264.535156h-75.007812l2.558594-25.597656h69.886718zm-76.714843 17.066406h78.417969l15.363281 153.601563h-109.144531zm461.609375 53.042969v100.558594h-113.964844zm-110.933594 0v75.121094l-28.828125 25.4375h-85.140625zm-110.933594 75.121094-28.828125 25.4375h-85.136719l113.964844-100.558594zm-125.878906 13.1875 14.132812-141.351563h78.402344l5.472656 54.871094zm90.835938-158.417969h-74.996094l2.558594-25.597656h69.882812zm-60.445313-68.265625h45.910156c4.390625-.023437 8.074219 3.304688 8.492188 7.675781l1.785156 17.925782h-66.472656l1.789062-17.941406c.429688-4.367188 4.109375-7.6875 8.496094-7.660157zm-128 0h45.910156c4.386719-.011719 8.066407 3.3125 8.492188 7.679688l1.792969 17.921875h-66.476563l1.792969-17.921875c.425781-4.363281 4.101562-7.691407 8.488281-7.679688zm-32.511719 409.601563h51.199219v25.597656h-51.199219zm68.265625-59.734375h42.667969v42.667969c-4.710938 0-8.535156 3.820312-8.535156 8.53125 0 4.714843 3.824218 8.535156 8.535156 8.535156v25.597656h-42.667969zm59.734375 85.332031v-25.597656c4.714844 0 8.535156-3.820313 8.535156-8.535156 0-4.710938-3.820312-8.53125-8.535156-8.53125v-42.667969h42.667969v85.332031zm59.734375 0v-25.597656h290.132813v25.597656zm0 0"/><path d="m196.265625 358.40625h-119.464844c-4.714843 0-8.535156 3.820312-8.535156 8.53125 0 4.714844 3.820313 8.535156 8.535156 8.535156h119.464844c4.714844 0 8.535156-3.820312 8.535156-8.535156 0-4.710938-3.820312-8.53125-8.535156-8.53125zm0 0"/><path d="m264.535156 435.207031h187.730469c9.421875-.011719 17.058594-7.644531 17.066406-17.066406v-68.269531c-.007812-9.421875-7.644531-17.054688-17.066406-17.066406h-187.730469c-9.421875.011718-17.058594 7.644531-17.070312 17.066406v68.269531c.011718 9.421875 7.648437 17.054687 17.070312 17.066406zm0-42.667969h34.132813v25.601563h-34.132813zm51.199219 0h34.132813v25.601563h-34.132813zm51.199219 0h34.132812v25.601563h-34.132812zm0-17.066406v-25.601562h34.132812v25.601562zm51.199218 42.667969v-25.601563h34.140626l.007812 25.601563zm34.136719-42.667969h-34.136719v-25.601562h34.132813zm-102.402343 0h-34.132813v-25.601562h34.132813zm-51.199219-25.601562v25.601562h-34.132813v-25.601562zm0 0"/><path d="m288.136719 80.175781c10.9375 5.59375 24.03125 4.910157 34.324219-1.792969 1.238281.816407 2.519531 1.5625 3.835937 2.238282 7.730469 3.992187 16.503906 5.515625 25.128906 4.363281 10.363281 17.21875 29.871094 26.746094 49.824219 24.332031 5.667969 9.433594 13.875 17.082032 23.683594 22.066406 24.34375 12.546876 54.097656 6.929688 72.195312-13.621093 18.097656-20.554688 19.898438-50.78125 4.375-73.339844-15.527344-22.558594-44.40625-31.671875-70.066406-22.109375-3.734375-3.757812-8.039062-6.902344-12.757812-9.316406-13.605469-7.066406-29.675782-7.609375-43.726563-1.476563-8.789063-8.222656-20.644531-12.347656-32.636719-11.359375-11.996094.984375-23.015625 6.988282-30.347656 16.53125-16.816406-4.171875-34.089844 4.914063-40.179688 21.132813-6.089843 16.21875.9375 34.429687 16.34375 42.351562zm.441406-38.15625c2.074219-4.027343 5.65625-7.066406 9.96875-8.445312 4.3125-1.382813 8.996094-.996094 13.019531 1.078125 4.191406 2.15625 9.335938.503906 11.492188-3.683594 3.105468-6.039062 8.480468-10.597656 14.945312-12.671875 6.46875-2.070313 13.492188-1.488281 19.527344 1.621094 3.382812 1.71875 6.320312 4.195312 8.585938 7.242187 2.613281 3.578125 7.539062 4.558594 11.324218 2.25 10.152344-6.25 22.835938-6.71875 33.425782-1.238281 4.476562 2.265625 8.371093 5.542969 11.371093 9.566406 2.488281 3.359375 7.039063 4.421875 10.757813 2.511719 17.972656-9.105469 39.867187-4.394531 52.503906 11.304688 12.632812 15.695312 12.558594 38.09375-.183594 53.703124-12.738281 15.613282-34.664062 20.175782-52.578125 10.949219-8.445312-4.285156-15.183593-11.320312-19.09375-19.945312-1.382812-3.046875-4.417969-5.007813-7.765625-5.007813-.714844 0-1.425781.089844-2.121094.265625-16.316406 4.261719-33.292968-4.078125-39.894531-19.597656-1.722656-3.996094-6.171875-6.0625-10.335937-4.804687-6.445313 2.007812-13.417969 1.40625-19.425782-1.671876-2.175781-1.140624-4.183593-2.574218-5.972656-4.261718-3.4375-3.175782-8.789062-2.992188-12.003906.410156-5.847656 6.15625-15.335938 7.074219-22.257812 2.152344-6.921876-4.917969-9.171876-14.179688-5.28125-21.726563zm0 0"/></svg>